<?xml version="1.0" encoding="utf-8" standalone="yes"?><svg xmlns="http://www.w3.org/2000/svg" cursor="crosshair" style="zoom: 0.125;" height="84(null)" viewBox="400 290 185 95" width="84(null)" visibility="visible"><g viewBox="0 0 90 20" preserveAspectRatio="xMidYMid meet" class="style-scope yt-icon" transform="matrix(5.715038, 0, 0, 5.715038, 409.288757, 277.787231)" visibility="visible"><g class="style-scope yt-icon" visibility="visible"><path d="M27.9727,3.12324 C27.643499,1.89323 26.6768,0.926623 25.4468,0.597366 C23.2197,0 14.285,0 14.285,0 C14.285,0 5.35042,0 3.12323,0.597366 C1.89323,0.926623 0.926623,1.89323 0.597366,3.12324 C0,5.35042 0,10 0,10 C0,10 0,14.6496 0.597366,16.876801 C0.926623,18.1068 1.89323,19.0734 3.12323,19.402599 C5.35042,20 14.285,20 14.285,20 C14.285,20 23.2197,20 25.4468,19.402599 C26.6768,19.0734 27.643499,18.1068 27.9727,16.876801 C28.570101,14.6496 28.570101,10 28.570101,10 C28.570101,10 28.567699,5.35042 27.9727,3.12324" visibility="visible" class="style-scope yt-icon" fill="#990000"></path><path d="M11.4253,14.2854 L18.8477,10.0004 L11.4253,5.71533 V14.2854" visibility="visible" class="style-scope yt-icon" fill="white"></path></g><g class="style-scope yt-icon" visibility="visible"><g id="youtube-paths" class="style-scope yt-icon" visibility="visible"></g></g></g></svg>